<svg width="644" height="420" viewBox="0 0 644 420" fill="none" xmlns="http://www.w3.org/2000/svg">
<rect width="644" height="420" fill="#B7DAF0"/>
<path fill-rule="evenodd" clip-rule="evenodd" d="M349.5 204.5C349.5 198.425 354.425 193.5 360.5 193.5H371.5V166H348.713C346.659 174.96 340.705 182.696 332.27 186.914L326.919 189.589C323.823 191.137 320.177 191.137 317.081 189.589L311.73 186.914C303.295 182.696 297.341 174.96 295.287 166H272.5V193.5H283.5C289.575 193.5 294.5 198.425 294.5 204.5V254H349.5V204.5ZM322 179.75L316.65 177.075C309.817 173.658 305.5 166.674 305.5 159.034C305.5 156.806 303.694 155 301.466 155H272.5C266.425 155 261.5 159.925 261.5 166V199C261.5 202.038 263.962 204.5 267 204.5H283.5V254C283.5 260.075 288.425 265 294.5 265H349.5C355.575 265 360.5 260.075 360.5 254V204.5H377C380.038 204.5 382.5 202.038 382.5 199V166C382.5 159.925 377.575 155 371.5 155H342.534C340.306 155 338.5 156.806 338.5 159.034C338.5 166.674 334.184 173.658 327.35 177.075L322 179.75Z" fill="#5EB3E8"/>
</svg>
