<svg width="24" height="24" viewBox="0 0 24 24" fill="none" xmlns="http://www.w3.org/2000/svg">
<g clip-path="url(#clip0_215_2502)">
<path d="M12.9999 3.87V3.89C12.9999 4.56 13.4499 5.12 14.0799 5.32C16.9299 6.21 18.9999 8.86 18.9999 12C18.9999 12.52 18.9399 13.01 18.8299 13.49C18.6899 14.13 18.9499 14.79 19.5199 15.13L19.5299 15.14C20.3899 15.64 21.5099 15.19 21.7399 14.23C21.9099 13.51 21.9999 12.76 21.9999 12C21.9999 7.5 19.0199 3.68 14.9199 2.43C13.9699 2.14 12.9999 2.87 12.9999 3.87ZM10.9399 18.92C7.94991 18.49 5.51991 16.06 5.07991 13.08C4.53991 9.48 6.73991 6.31 9.90991 5.32C10.5499 5.13 10.9999 4.56 10.9999 3.89V3.87C10.9999 2.87 10.0299 2.14 9.06991 2.43C4.55991 3.81 1.40991 8.29 2.08991 13.39C2.67991 17.77 6.21991 21.31 10.5999 21.9C13.7399 22.32 16.6399 21.29 18.7299 19.37C19.4699 18.69 19.3399 17.48 18.4699 16.98C17.8899 16.64 17.1699 16.75 16.6699 17.2C15.1999 18.54 13.1599 19.25 10.9399 18.92Z" fill="#323232"/>
</g>
<defs>
<clipPath id="clip0_215_2502">
<rect width="24" height="24" fill="white"/>
</clipPath>
</defs>
</svg>
