<svg id="Layer_1" data-name="Layer 1" xmlns="http://www.w3.org/2000/svg" viewBox="0 0 512 512"><title>Favourite Shop</title><path d="M266.667,215.607a63.723,63.723,0,0,0,85.333,0v-58.8a74.633,74.633,0,0,0-1.135-12.979L333.014,42.667H266.667Z" id="id_101" style="fill: rgb(255, 185, 23);"></path><path d="M160,156.807v58.8a63.723,63.723,0,0,0,85.333,0V42.667H178.986l-17.85,101.161A74.633,74.633,0,0,0,160,156.807Z" id="id_102" style="fill: rgb(250, 181, 20);"></path><path d="M475.635,154.339h-.005l-33.8-90.828a32.132,32.132,0,0,0-29.99-20.844H354.677l17.2,97.453a96.2,96.2,0,0,1,1.458,16.688v58.8A63.918,63.918,0,0,0,476.76,188.151C480.24,177.661,479.839,165.651,475.635,154.339Z" id="id_103" style="fill: rgb(247, 179, 19);"></path><path d="M138.667,156.807a96.2,96.2,0,0,1,1.458-16.687l17.2-97.453H100.156A32.132,32.132,0,0,0,70.167,63.51l-33.8,90.828c-4.2,11.313-4.6,23.323-1.125,33.807a63.916,63.916,0,0,0,103.427,27.462Z" id="id_104" style="fill: rgb(247, 178, 17);"></path><path d="M416,253.333A85.107,85.107,0,0,1,362.667,234.6,85.3,85.3,0,0,1,256,234.6a85.3,85.3,0,0,1-106.667,0,85.155,85.155,0,0,1-74.667,16V416A53.4,53.4,0,0,0,128,469.333H384A53.4,53.4,0,0,0,437.333,416V250.6A85.585,85.585,0,0,1,416,253.333Zm-85.281,95.475-26.911,30.119,4.068,40.186a10.666,10.666,0,0,1-14.914,10.835L256,413.66l-36.961,16.288a10.667,10.667,0,0,1-14.914-10.835l4.069-40.186-26.913-30.119a10.667,10.667,0,0,1,5.7-17.532l39.477-8.549,20.328-34.9a10.667,10.667,0,0,1,18.435,0l20.328,34.9,39.477,8.549A10.667,10.667,0,0,1,330.719,348.808Z" id="id_105" style="fill: rgb(247, 177, 15);"></path></svg>