<!DOCTYPE svg PUBLIC "-//W3C//DTD SVG 1.1//EN" "http://www.w3.org/Graphics/SVG/1.1/DTD/svg11.dtd">
<!-- Uploaded to: SVG Repo, www.svgrepo.com, Transformed by: SVG Repo Mixer Tools -->
<svg fill="#1581f4" width="800px" height="800px" viewBox="0 0 36 36" version="1.1" preserveAspectRatio="xMidYMid meet" xmlns="http://www.w3.org/2000/svg" xmlns:xlink="http://www.w3.org/1999/xlink" stroke="#1581f4">
<g id="SVGRepo_bgCarrier" stroke-width="0"/>
<g id="SVGRepo_tracerCarrier" stroke-linecap="round" stroke-linejoin="round"/>
<g id="SVGRepo_iconCarrier"> <title>sad-face-line</title> <path d="M18,2A16,16,0,1,0,34,18,16,16,0,0,0,18,2Zm0,30A14,14,0,1,1,32,18,14,14,0,0,1,18,32Z" class="clr-i-outline clr-i-outline-path-1"/>
<circle cx="25.16" cy="14.28" r="1.8" class="clr-i-outline clr-i-outline-path-2"/>
<circle cx="11.41" cy="14.28" r="1.8" class="clr-i-outline clr-i-outline-path-3"/>
<path d="M18.16,20a9,9,0,0,0-7.33,3.78,1,1,0,1,0,1.63,1.16,7,7,0,0,1,11.31-.13,1,1,0,0,0,1.6-1.2A9,9,0,0,0,18.16,20Z" class="clr-i-outline clr-i-outline-path-4"/> <rect x="0" y="0" width="36" height="36" fill-opacity="0"/> </g>
</svg>